<svg width="64" height="78" viewBox="0 0 64 78" fill="none" xmlns="http://www.w3.org/2000/svg">
<path d="M22.223 27.5326L61.1352 16.4148M61.1352 40.6997V54.597C61.1349 56.4088 60.5444 58.1711 59.4531 59.6174C58.3619 61.0637 56.8293 62.1153 55.0872 62.6129L50.1953 64.01C49.3472 64.2663 48.4564 64.3514 47.5751 64.2602C46.6937 64.169 45.8393 63.9035 45.0615 63.479C44.2837 63.0545 43.5982 62.4796 43.0447 61.7876C42.4912 61.0957 42.0809 60.3006 41.8376 59.4485C41.5943 58.5965 41.5229 57.7046 41.6275 56.8247C41.7322 55.9449 42.0108 55.0946 42.4471 54.3234C42.8835 53.5522 43.4689 52.8755 44.1692 52.3327C44.8695 51.7899 45.6708 51.3918 46.5265 51.1616L55.0872 48.7157C56.8293 48.218 58.3619 47.1665 59.4531 45.7202C60.5444 44.2739 61.1349 42.5115 61.1352 40.6997ZM61.1352 40.6997V2.51758L22.223 13.6354V51.8175M22.223 51.8175V65.7147C22.2226 67.5265 21.6322 69.2889 20.5409 70.7352C19.4497 72.1815 17.917 73.233 16.1749 73.7307L11.2831 75.1278C9.58896 75.5836 7.7835 75.3549 6.25657 74.4909C4.72964 73.627 3.60377 72.1971 3.12206 70.5101C2.64034 68.8232 2.84144 67.0144 3.68192 65.4744C4.52241 63.9345 5.93484 62.7868 7.61425 62.2794L16.1749 59.8334C17.917 59.3358 19.4497 58.2843 20.5409 56.838C21.6322 55.3917 22.2226 53.6293 22.223 51.8175Z" stroke="#B18B36" stroke-width="4" stroke-linecap="round" stroke-linejoin="round"/>
</svg>
