<svg width="16" height="16" viewBox="0 0 16 16" fill="none" xmlns="http://www.w3.org/2000/svg">
<path fill-rule="evenodd" clip-rule="evenodd" d="M16 1.99983C16 1.46921 15.7894 0.960587 15.4147 0.585951C15.0394 0.210649 14.5308 0 14.0002 0C11.2111 0 4.78893 0 1.99983 0C1.46921 0 0.960587 0.210649 0.585951 0.585951C0.210649 0.960587 0 1.46921 0 1.99983C0 4.78893 0 11.2097 0 13.9988C0 14.5295 0.210649 15.0381 0.585951 15.4127C0.960587 15.788 1.46921 15.9987 1.99983 15.9987C4.78893 15.9987 11.2111 15.9987 14.0002 15.9987C14.5308 15.9987 15.0394 15.788 15.4147 15.4127C15.7894 15.0381 16 14.5295 16 13.9988V1.99983ZM3.33306 1.33322H1.99983C1.82318 1.33322 1.6532 1.40322 1.52854 1.52854C1.40322 1.6532 1.33322 1.82318 1.33322 1.99983V13.9988C1.33322 14.1755 1.40322 14.3455 1.52854 14.4701C1.6532 14.5955 1.82318 14.6654 1.99983 14.6654H4.66294L4.63695 9.33255H3.99967C3.6317 9.33255 3.33306 9.03391 3.33306 8.66594V1.33322ZM8.66394 1.33322H7.33272V8.66594C7.33272 9.03391 7.03408 9.33255 6.66611 9.33255H5.97017L5.99617 14.6654H9.99917L9.99783 9.33255H9.33055C8.96259 9.33255 8.66394 9.03391 8.66394 8.66594V1.33322ZM12.6636 1.33322V8.66594C12.6636 9.03391 12.3656 9.33255 11.997 9.33255H11.3311L11.3324 14.6654H14.0002C14.1775 14.6654 14.3468 14.5955 14.4721 14.4701C14.5968 14.3455 14.6668 14.1755 14.6668 13.9988V1.99983C14.6668 1.82318 14.5968 1.6532 14.4721 1.52854C14.3468 1.40322 14.1775 1.33322 14.0002 1.33322H12.6636ZM11.3304 1.33322H9.99717V7.99933H11.3304V1.33322ZM5.9995 1.33322H4.66628V7.99933H5.9995V1.33322Z" fill="white"/>
</svg>
