<svg width="62" height="66" viewBox="0 0 62 66" fill="none" xmlns="http://www.w3.org/2000/svg">
<path d="M2.91016 7.08082C2.91016 3.59321 6.64615 1.38492 9.70175 3.06354L56.7174 28.9273C57.436 29.323 58.0353 29.9043 58.4526 30.6106C58.87 31.3169 59.0902 32.1222 59.0902 32.9426C59.0902 33.763 58.87 34.5683 58.4526 35.2746C58.0353 35.9808 57.436 36.5621 56.7174 36.9578L9.70175 62.8175C9.0041 63.2011 8.21856 63.3963 7.42251 63.384C6.62647 63.3717 5.84736 63.1522 5.16193 62.7471C4.4765 62.3421 3.90839 61.7655 3.51354 61.0742C3.1187 60.3828 2.91074 59.6005 2.91016 58.8043V7.08082Z" stroke="#B18B36" strokeWidth="4" strokeLinecap="round" strokeLinejoin="round"/>
</svg>
